<?xml version="1.0" encoding="utf-8" standalone="no"?>
<!DOCTYPE svg PUBLIC "-//W3C//DTD SVG 1.1//EN"
  "http://www.w3.org/Graphics/SVG/1.1/DTD/svg11.dtd">
<svg xmlns:xlink="http://www.w3.org/1999/xlink" width="1144.44625pt" height="568.765687pt" viewBox="0 0 1144.44625 568.765687" xmlns="http://www.w3.org/2000/svg" version="1.1">
 <metadata>
  <rdf:RDF xmlns:dc="http://purl.org/dc/elements/1.1/" xmlns:cc="http://creativecommons.org/ns#" xmlns:rdf="http://www.w3.org/1999/02/22-rdf-syntax-ns#">
   <cc:Work>
    <dc:type rdf:resource="http://purl.org/dc/dcmitype/StillImage"/>
    <dc:date>2025-02-26T16:39:06.090636</dc:date>
    <dc:format>image/svg+xml</dc:format>
    <dc:creator>
     <cc:Agent>
      <dc:title>Matplotlib v3.10.0, https://matplotlib.org/</dc:title>
     </cc:Agent>
    </dc:creator>
   </cc:Work>
  </rdf:RDF>
 </metadata>
 <defs>
  <style type="text/css">*{stroke-linejoin: round; stroke-linecap: butt}</style>
 </defs>
 <g id="figure_1">
  <g id="patch_1">
   <path d="M 0 568.765687 
L 1144.44625 568.765687 
L 1144.44625 0 
L 0 0 
z
" style="fill: #ffffff"/>
  </g>
  <g id="axes_1">
   <g id="patch_2">
    <path d="M 78.80125 533.18 
L 1137.24625 533.18 
L 1137.24625 7.2 
L 78.80125 7.2 
z
" style="fill: #ffffff"/>
   </g>
   <g id="matplotlib.axis_1">
    <g id="xtick_1">
     <g id="line2d_1">
      <defs>
       <path id="m7b4c902396" d="M 0 0 
L 0 3.5 
" style="stroke: #000000; stroke-width: 0.8"/>
      </defs>
      <g>
       <use xlink:href="#m7b4c902396" x="237.938086" y="533.18" style="stroke: #000000; stroke-width: 0.8"/>
      </g>
     </g>
     <g id="text_1">
      <!-- zsh -i -c "exit 0" -->
      <g transform="translate(159.532804 556.499812) scale(0.228 -0.228)">
       <defs>
        <path id="ArialUnicodeMS-7a" d="M 3066 0 
L 128 0 
L 128 453 
L 2241 2875 
Q 1869 2853 1606 2853 
L 250 2853 
L 250 3316 
L 2963 3316 
L 2963 2950 
L 1166 850 
Q 1113 784 891 544 
Q 838 494 819 459 
Q 1141 488 1528 488 
L 3066 488 
L 3066 0 
z
" transform="scale(0.015625)"/>
        <path id="ArialUnicodeMS-73" d="M 2278 2388 
Q 2241 2659 2058 2795 
Q 1875 2931 1550 2931 
Q 1228 2931 1029 2822 
Q 831 2713 831 2503 
Q 831 2306 989 2222 
Q 1147 2138 1613 2016 
Q 2138 1881 2398 1778 
Q 2659 1675 2804 1489 
Q 2950 1303 2950 972 
Q 2950 528 2587 225 
Q 2225 -78 1619 -78 
Q 988 -78 633 189 
Q 278 456 197 991 
L 756 1075 
Q 800 728 1014 556 
Q 1228 384 1613 384 
Q 1981 384 2178 539 
Q 2375 694 2375 916 
Q 2375 1066 2284 1156 
Q 2194 1247 2058 1292 
Q 1922 1338 1447 1453 
Q 741 1622 514 1862 
Q 288 2103 288 2438 
Q 288 2853 619 3122 
Q 950 3391 1509 3391 
Q 2103 3391 2433 3158 
Q 2763 2925 2828 2463 
L 2278 2388 
z
" transform="scale(0.015625)"/>
        <path id="ArialUnicodeMS-68" d="M 3138 0 
L 2572 0 
L 2572 2094 
Q 2572 2500 2397 2703 
Q 2222 2906 1875 2906 
Q 1531 2906 1261 2667 
Q 991 2428 991 1813 
L 991 0 
L 428 0 
L 428 4581 
L 991 4581 
L 991 2938 
Q 1391 3391 1991 3391 
Q 2313 3391 2606 3259 
Q 2900 3128 3019 2856 
Q 3138 2584 3138 2100 
L 3138 0 
z
" transform="scale(0.015625)"/>
        <path id="ArialUnicodeMS-20" transform="scale(0.015625)"/>
        <path id="ArialUnicodeMS-2d" d="M 1925 1375 
L 206 1375 
L 206 1941 
L 1925 1941 
L 1925 1375 
z
" transform="scale(0.015625)"/>
        <path id="ArialUnicodeMS-69" d="M 991 0 
L 428 0 
L 428 3316 
L 991 3316 
L 991 0 
z
M 991 3944 
L 428 3944 
L 428 4581 
L 991 4581 
L 991 3944 
z
" transform="scale(0.015625)"/>
        <path id="ArialUnicodeMS-63" d="M 3144 1147 
Q 3034 513 2643 217 
Q 2253 -78 1759 -78 
Q 1038 -78 644 395 
Q 250 869 250 1650 
Q 250 2297 476 2686 
Q 703 3075 1043 3233 
Q 1384 3391 1759 3391 
Q 2272 3391 2636 3125 
Q 3000 2859 3084 2344 
L 2541 2259 
Q 2456 2594 2267 2762 
Q 2078 2931 1784 2931 
Q 1313 2931 1069 2597 
Q 825 2263 825 1663 
Q 825 1050 1064 717 
Q 1303 384 1753 384 
Q 2116 384 2323 592 
Q 2531 800 2584 1216 
L 3144 1147 
z
" transform="scale(0.015625)"/>
        <path id="ArialUnicodeMS-22" d="M 2003 3834 
L 1863 2956 
L 1516 2956 
L 1363 3834 
L 1363 4581 
L 2003 4581 
L 2003 3834 
z
M 903 3834 
L 763 2956 
L 416 2956 
L 263 3834 
L 263 4581 
L 903 4581 
L 903 3834 
z
" transform="scale(0.015625)"/>
        <path id="ArialUnicodeMS-65" d="M 3309 1516 
L 825 1516 
Q 859 966 1139 675 
Q 1419 384 1838 384 
Q 2159 384 2378 554 
Q 2597 725 2713 1069 
L 3291 997 
Q 3150 478 2775 200 
Q 2400 -78 1838 -78 
Q 1091 -78 670 380 
Q 250 838 250 1631 
Q 250 2416 658 2903 
Q 1066 3391 1806 3391 
Q 2169 3391 2505 3231 
Q 2841 3072 3075 2689 
Q 3309 2306 3309 1516 
z
M 2731 1978 
Q 2697 2484 2417 2707 
Q 2138 2931 1806 2931 
Q 1409 2931 1153 2665 
Q 897 2400 856 1978 
L 2731 1978 
z
" transform="scale(0.015625)"/>
        <path id="ArialUnicodeMS-78" d="M 3156 0 
L 2463 0 
L 1600 1313 
L 728 0 
L 44 0 
L 1259 1728 
L 141 3316 
L 838 3316 
Q 1519 2288 1581 2169 
L 2394 3316 
L 3066 3316 
L 1919 1759 
L 3156 0 
z
" transform="scale(0.015625)"/>
        <path id="ArialUnicodeMS-74" d="M 1722 6 
Q 1472 -44 1300 -44 
Q 931 -44 762 86 
Q 594 216 556 416 
Q 519 616 519 972 
L 519 2881 
L 109 2881 
L 109 3316 
L 519 3316 
L 519 4141 
L 1081 4481 
L 1081 3316 
L 1644 3316 
L 1644 2881 
L 1081 2881 
L 1081 941 
Q 1081 691 1132 586 
Q 1184 481 1394 481 
Q 1516 481 1644 506 
L 1722 6 
z
" transform="scale(0.015625)"/>
        <path id="ArialUnicodeMS-30" d="M 1778 4603 
Q 3272 4603 3272 2259 
Q 3272 1075 2886 498 
Q 2500 -78 1778 -78 
Q 288 -78 288 2259 
Q 288 3444 673 4023 
Q 1059 4603 1778 4603 
z
M 1778 384 
Q 2231 384 2462 823 
Q 2694 1263 2694 2259 
Q 2694 2953 2592 3351 
Q 2491 3750 2286 3945 
Q 2081 4141 1772 4141 
Q 1319 4141 1091 3694 
Q 863 3247 863 2259 
Q 863 1575 966 1175 
Q 1069 775 1272 579 
Q 1475 384 1778 384 
z
" transform="scale(0.015625)"/>
       </defs>
       <use xlink:href="#ArialUnicodeMS-7a"/>
       <use xlink:href="#ArialUnicodeMS-73" transform="translate(50 0)"/>
       <use xlink:href="#ArialUnicodeMS-68" transform="translate(100 0)"/>
       <use xlink:href="#ArialUnicodeMS-20" transform="translate(155.615234 0)"/>
       <use xlink:href="#ArialUnicodeMS-2d" transform="translate(183.398438 0)"/>
       <use xlink:href="#ArialUnicodeMS-69" transform="translate(216.699219 0)"/>
       <use xlink:href="#ArialUnicodeMS-20" transform="translate(238.916016 0)"/>
       <use xlink:href="#ArialUnicodeMS-2d" transform="translate(266.699219 0)"/>
       <use xlink:href="#ArialUnicodeMS-63" transform="translate(300 0)"/>
       <use xlink:href="#ArialUnicodeMS-20" transform="translate(350 0)"/>
       <use xlink:href="#ArialUnicodeMS-22" transform="translate(377.783203 0)"/>
       <use xlink:href="#ArialUnicodeMS-65" transform="translate(413.28125 0)"/>
       <use xlink:href="#ArialUnicodeMS-78" transform="translate(468.896484 0)"/>
       <use xlink:href="#ArialUnicodeMS-69" transform="translate(518.896484 0)"/>
       <use xlink:href="#ArialUnicodeMS-74" transform="translate(541.113281 0)"/>
       <use xlink:href="#ArialUnicodeMS-20" transform="translate(568.896484 0)"/>
       <use xlink:href="#ArialUnicodeMS-30" transform="translate(596.679688 0)"/>
       <use xlink:href="#ArialUnicodeMS-22" transform="translate(652.294922 0)"/>
      </g>
     </g>
    </g>
    <g id="xtick_2">
     <g id="line2d_2">
      <g>
       <use xlink:href="#m7b4c902396" x="608.02375" y="533.18" style="stroke: #000000; stroke-width: 0.8"/>
      </g>
     </g>
     <g id="text_2">
      <!-- First Command Lag -->
      <g transform="translate(507.929969 556.777687) scale(0.228 -0.228)">
       <defs>
        <path id="ArialUnicodeMS-46" d="M 3603 4038 
L 1119 4038 
L 1119 2619 
L 3272 2619 
L 3272 2075 
L 1119 2075 
L 1119 0 
L 513 0 
L 513 4581 
L 3603 4581 
L 3603 4038 
z
" transform="scale(0.015625)"/>
        <path id="ArialUnicodeMS-72" d="M 2216 3213 
L 2022 2694 
Q 1813 2816 1613 2816 
Q 1297 2816 1134 2533 
Q 972 2250 972 1741 
L 972 0 
L 409 0 
L 409 3316 
L 922 3316 
L 922 2816 
L 934 2816 
Q 1203 3391 1638 3391 
Q 1925 3391 2216 3213 
z
" transform="scale(0.015625)"/>
        <path id="ArialUnicodeMS-43" d="M 4372 1453 
Q 4172 681 3673 301 
Q 3175 -78 2478 -78 
Q 1353 -78 839 626 
Q 325 1331 325 2322 
Q 325 3419 929 4039 
Q 1534 4659 2484 4659 
Q 3153 4659 3628 4318 
Q 4103 3978 4294 3322 
L 3700 3181 
Q 3550 3659 3244 3900 
Q 2938 4141 2478 4141 
Q 1728 4141 1340 3648 
Q 953 3156 953 2328 
Q 953 1372 1361 906 
Q 1769 441 2425 441 
Q 2963 441 3298 731 
Q 3634 1022 3769 1606 
L 4372 1453 
z
" transform="scale(0.015625)"/>
        <path id="ArialUnicodeMS-6f" d="M 1778 3391 
Q 2450 3391 2892 2953 
Q 3334 2516 3334 1709 
Q 3334 731 2856 326 
Q 2378 -78 1778 -78 
Q 1150 -78 687 337 
Q 225 753 225 1656 
Q 225 2531 672 2961 
Q 1119 3391 1778 3391 
z
M 1778 384 
Q 2259 384 2509 740 
Q 2759 1097 2759 1678 
Q 2759 2300 2476 2615 
Q 2194 2931 1778 2931 
Q 1350 2931 1075 2611 
Q 800 2291 800 1656 
Q 800 1025 1079 704 
Q 1359 384 1778 384 
z
" transform="scale(0.015625)"/>
        <path id="ArialUnicodeMS-6d" d="M 4922 0 
L 4359 0 
L 4359 2094 
Q 4359 2325 4328 2489 
Q 4297 2653 4167 2779 
Q 4038 2906 3763 2906 
Q 3431 2906 3190 2675 
Q 2950 2444 2950 1925 
L 2950 0 
L 2388 0 
L 2388 2156 
Q 2388 2588 2236 2747 
Q 2084 2906 1806 2906 
Q 1444 2906 1211 2656 
Q 978 2406 978 1722 
L 978 0 
L 416 0 
L 416 3316 
L 922 3316 
L 922 2853 
L 934 2853 
Q 1272 3391 1925 3391 
Q 2291 3391 2527 3245 
Q 2763 3100 2869 2809 
Q 3238 3391 3891 3391 
Q 4406 3391 4664 3112 
Q 4922 2834 4922 2278 
L 4922 0 
z
" transform="scale(0.015625)"/>
        <path id="ArialUnicodeMS-61" d="M 3303 0 
L 2713 0 
Q 2631 156 2597 409 
Q 2031 -78 1375 -78 
Q 850 -78 547 184 
Q 244 447 244 878 
Q 244 1291 536 1558 
Q 828 1825 1550 1913 
L 2075 1991 
Q 2369 2038 2559 2106 
Q 2559 2359 2543 2464 
Q 2528 2569 2451 2681 
Q 2375 2794 2206 2862 
Q 2038 2931 1753 2931 
Q 1391 2931 1180 2797 
Q 969 2663 891 2297 
L 341 2369 
Q 431 2878 806 3134 
Q 1181 3391 1838 3391 
Q 2434 3391 2714 3214 
Q 2994 3038 3058 2788 
Q 3122 2538 3122 2144 
L 3122 1388 
Q 3122 697 3148 461 
Q 3175 225 3303 0 
z
M 2559 1459 
L 2559 1663 
Q 2119 1516 1481 1430 
Q 844 1344 844 891 
Q 844 663 1016 514 
Q 1188 366 1509 366 
Q 1925 366 2242 614 
Q 2559 863 2559 1459 
z
" transform="scale(0.015625)"/>
        <path id="ArialUnicodeMS-6e" d="M 3138 0 
L 2572 0 
L 2572 2016 
Q 2572 2525 2389 2715 
Q 2206 2906 1881 2906 
Q 1631 2906 1407 2784 
Q 1184 2663 1090 2441 
Q 997 2219 997 1813 
L 997 0 
L 434 0 
L 434 3316 
L 941 3316 
L 941 2847 
L 953 2847 
Q 1131 3119 1392 3255 
Q 1653 3391 1997 3391 
Q 2259 3391 2515 3297 
Q 2772 3203 2917 3015 
Q 3063 2828 3100 2615 
Q 3138 2403 3138 2041 
L 3138 0 
z
" transform="scale(0.015625)"/>
        <path id="ArialUnicodeMS-64" d="M 3109 0 
L 2584 0 
L 2584 422 
L 2572 422 
Q 2269 -78 1656 -78 
Q 1047 -78 639 405 
Q 231 888 231 1656 
Q 231 2459 615 2925 
Q 1000 3391 1631 3391 
Q 2225 3391 2534 2938 
L 2547 2938 
L 2547 4581 
L 3109 4581 
L 3109 0 
z
M 1716 384 
Q 2084 384 2340 687 
Q 2597 991 2597 1606 
Q 2597 2213 2362 2572 
Q 2128 2931 1691 2931 
Q 1253 2931 1029 2579 
Q 806 2228 806 1656 
Q 806 1244 926 958 
Q 1047 672 1262 528 
Q 1478 384 1716 384 
z
" transform="scale(0.015625)"/>
        <path id="ArialUnicodeMS-4c" d="M 3347 0 
L 481 0 
L 481 4581 
L 1088 4581 
L 1088 544 
L 3347 544 
L 3347 0 
z
" transform="scale(0.015625)"/>
        <path id="ArialUnicodeMS-67" d="M 3144 447 
Q 3144 -259 3003 -607 
Q 2863 -956 2503 -1150 
Q 2144 -1344 1644 -1344 
Q 1081 -1344 706 -1094 
Q 331 -844 331 -275 
L 878 -359 
Q 909 -622 1098 -753 
Q 1288 -884 1638 -884 
Q 2075 -884 2278 -706 
Q 2481 -528 2526 -272 
Q 2572 -16 2572 434 
Q 2206 0 1650 0 
Q 1003 0 611 478 
Q 219 956 219 1684 
Q 219 2416 600 2903 
Q 981 3391 1656 3391 
Q 2244 3391 2613 2919 
L 2625 2919 
L 2625 3316 
L 3144 3316 
L 3144 447 
z
M 1703 459 
Q 2063 459 2341 745 
Q 2619 1031 2619 1703 
Q 2619 2297 2353 2614 
Q 2088 2931 1697 2931 
Q 1297 2931 1045 2606 
Q 794 2281 794 1716 
Q 794 1063 1058 761 
Q 1322 459 1703 459 
z
" transform="scale(0.015625)"/>
       </defs>
       <use xlink:href="#ArialUnicodeMS-46"/>
       <use xlink:href="#ArialUnicodeMS-69" transform="translate(61.083984 0)"/>
       <use xlink:href="#ArialUnicodeMS-72" transform="translate(83.300781 0)"/>
       <use xlink:href="#ArialUnicodeMS-73" transform="translate(116.601562 0)"/>
       <use xlink:href="#ArialUnicodeMS-74" transform="translate(166.601562 0)"/>
       <use xlink:href="#ArialUnicodeMS-20" transform="translate(194.384766 0)"/>
       <use xlink:href="#ArialUnicodeMS-43" transform="translate(222.167969 0)"/>
       <use xlink:href="#ArialUnicodeMS-6f" transform="translate(294.384766 0)"/>
       <use xlink:href="#ArialUnicodeMS-6d" transform="translate(350 0)"/>
       <use xlink:href="#ArialUnicodeMS-6d" transform="translate(433.300781 0)"/>
       <use xlink:href="#ArialUnicodeMS-61" transform="translate(516.601562 0)"/>
       <use xlink:href="#ArialUnicodeMS-6e" transform="translate(572.216797 0)"/>
       <use xlink:href="#ArialUnicodeMS-64" transform="translate(627.832031 0)"/>
       <use xlink:href="#ArialUnicodeMS-20" transform="translate(683.447266 0)"/>
       <use xlink:href="#ArialUnicodeMS-4c" transform="translate(711.230469 0)"/>
       <use xlink:href="#ArialUnicodeMS-61" transform="translate(766.845703 0)"/>
       <use xlink:href="#ArialUnicodeMS-67" transform="translate(822.460938 0)"/>
      </g>
     </g>
    </g>
    <g id="xtick_3">
     <g id="line2d_3">
      <g>
       <use xlink:href="#m7b4c902396" x="978.109414" y="533.18" style="stroke: #000000; stroke-width: 0.8"/>
      </g>
     </g>
     <g id="text_3">
      <!-- First Prompt Lag -->
      <g transform="translate(893.856289 556.499812) scale(0.228 -0.228)">
       <defs>
        <path id="ArialUnicodeMS-50" d="M 494 4581 
L 2222 4581 
Q 2631 4581 2926 4540 
Q 3222 4500 3475 4329 
Q 3728 4159 3858 3867 
Q 3988 3575 3988 3256 
Q 3988 2622 3580 2239 
Q 3172 1856 2272 1856 
L 1100 1856 
L 1100 0 
L 494 0 
L 494 4581 
z
M 1100 2400 
L 2278 2400 
Q 3359 2400 3359 3238 
Q 3359 3513 3218 3723 
Q 3078 3934 2873 3986 
Q 2669 4038 2266 4038 
L 1100 4038 
L 1100 2400 
z
" transform="scale(0.015625)"/>
        <path id="ArialUnicodeMS-70" d="M 959 2888 
Q 1275 3391 1906 3391 
Q 2559 3391 2937 2917 
Q 3316 2444 3316 1684 
Q 3316 875 2897 398 
Q 2478 -78 1869 -78 
Q 1334 -78 1013 347 
L 997 347 
L 997 -1275 
L 434 -1275 
L 434 3316 
L 947 3316 
L 947 2888 
L 959 2888 
z
M 1831 384 
Q 2225 384 2483 711 
Q 2741 1038 2741 1684 
Q 2741 2294 2492 2622 
Q 2244 2950 1856 2950 
Q 1456 2950 1198 2584 
Q 941 2219 941 1638 
Q 941 1022 1187 703 
Q 1434 384 1831 384 
z
" transform="scale(0.015625)"/>
       </defs>
       <use xlink:href="#ArialUnicodeMS-46"/>
       <use xlink:href="#ArialUnicodeMS-69" transform="translate(61.083984 0)"/>
       <use xlink:href="#ArialUnicodeMS-72" transform="translate(83.300781 0)"/>
       <use xlink:href="#ArialUnicodeMS-73" transform="translate(116.601562 0)"/>
       <use xlink:href="#ArialUnicodeMS-74" transform="translate(166.601562 0)"/>
       <use xlink:href="#ArialUnicodeMS-20" transform="translate(194.384766 0)"/>
       <use xlink:href="#ArialUnicodeMS-50" transform="translate(222.167969 0)"/>
       <use xlink:href="#ArialUnicodeMS-72" transform="translate(288.867188 0)"/>
       <use xlink:href="#ArialUnicodeMS-6f" transform="translate(322.167969 0)"/>
       <use xlink:href="#ArialUnicodeMS-6d" transform="translate(377.783203 0)"/>
       <use xlink:href="#ArialUnicodeMS-70" transform="translate(461.083984 0)"/>
       <use xlink:href="#ArialUnicodeMS-74" transform="translate(516.699219 0)"/>
       <use xlink:href="#ArialUnicodeMS-20" transform="translate(544.482422 0)"/>
       <use xlink:href="#ArialUnicodeMS-4c" transform="translate(572.265625 0)"/>
       <use xlink:href="#ArialUnicodeMS-61" transform="translate(627.880859 0)"/>
       <use xlink:href="#ArialUnicodeMS-67" transform="translate(683.496094 0)"/>
      </g>
     </g>
    </g>
   </g>
   <g id="matplotlib.axis_2">
    <g id="ytick_1">
     <g id="line2d_4">
      <path d="M 78.80125 533.18 
L 1137.24625 533.18 
" clip-path="url(#pdaaedeb237)" style="fill: none; stroke: #b0b0b0; stroke-opacity: 0.5; stroke-width: 0.8; stroke-linecap: square"/>
     </g>
     <g id="line2d_5">
      <defs>
       <path id="mee21d34150" d="M 0 0 
L -6 0 
" style="stroke: #000000; stroke-width: 0.8"/>
      </defs>
      <g>
       <use xlink:href="#mee21d34150" x="78.80125" y="533.18" style="stroke: #000000; stroke-width: 0.8"/>
      </g>
     </g>
     <g id="text_4">
      <!-- 0 -->
      <g transform="translate(60.40375 538.90625) scale(0.16 -0.16)">
       <use xlink:href="#ArialUnicodeMS-30"/>
      </g>
     </g>
    </g>
    <g id="ytick_2">
     <g id="line2d_6">
      <path d="M 78.80125 470.169518 
L 1137.24625 470.169518 
" clip-path="url(#pdaaedeb237)" style="fill: none; stroke: #b0b0b0; stroke-opacity: 0.5; stroke-width: 0.8; stroke-linecap: square"/>
     </g>
     <g id="line2d_7">
      <g>
       <use xlink:href="#mee21d34150" x="78.80125" y="470.169518" style="stroke: #000000; stroke-width: 0.8"/>
      </g>
     </g>
     <g id="text_5">
      <!-- 200 -->
      <g transform="translate(42.60875 475.895768) scale(0.16 -0.16)">
       <defs>
        <path id="ArialUnicodeMS-32" d="M 3231 0 
L 197 0 
Q 197 388 467 784 
Q 738 1181 1478 1778 
Q 1931 2141 2287 2539 
Q 2644 2938 2644 3341 
Q 2644 3688 2398 3914 
Q 2153 4141 1778 4141 
Q 1400 4141 1144 3908 
Q 888 3675 884 3213 
L 306 3278 
Q 359 3922 764 4262 
Q 1169 4603 1791 4603 
Q 2466 4603 2842 4229 
Q 3219 3856 3219 3328 
Q 3219 2888 2901 2436 
Q 2584 1984 1638 1228 
Q 1141 831 978 544 
L 3231 544 
L 3231 0 
z
" transform="scale(0.015625)"/>
       </defs>
       <use xlink:href="#ArialUnicodeMS-32"/>
       <use xlink:href="#ArialUnicodeMS-30" transform="translate(55.615234 0)"/>
       <use xlink:href="#ArialUnicodeMS-30" transform="translate(111.230469 0)"/>
      </g>
     </g>
    </g>
    <g id="ytick_3">
     <g id="line2d_8">
      <path d="M 78.80125 407.159036 
L 1137.24625 407.159036 
" clip-path="url(#pdaaedeb237)" style="fill: none; stroke: #b0b0b0; stroke-opacity: 0.5; stroke-width: 0.8; stroke-linecap: square"/>
     </g>
     <g id="line2d_9">
      <g>
       <use xlink:href="#mee21d34150" x="78.80125" y="407.159036" style="stroke: #000000; stroke-width: 0.8"/>
      </g>
     </g>
     <g id="text_6">
      <!-- 400 -->
      <g transform="translate(42.60875 412.885286) scale(0.16 -0.16)">
       <defs>
        <path id="ArialUnicodeMS-34" d="M 3263 1094 
L 2644 1094 
L 2644 0 
L 2081 0 
L 2081 1094 
L 97 1094 
L 97 1613 
L 2181 4581 
L 2644 4581 
L 2644 1613 
L 3263 1613 
L 3263 1094 
z
M 2081 1613 
L 2081 3681 
L 2069 3681 
L 647 1613 
L 2081 1613 
z
" transform="scale(0.015625)"/>
       </defs>
       <use xlink:href="#ArialUnicodeMS-34"/>
       <use xlink:href="#ArialUnicodeMS-30" transform="translate(55.615234 0)"/>
       <use xlink:href="#ArialUnicodeMS-30" transform="translate(111.230469 0)"/>
      </g>
     </g>
    </g>
    <g id="ytick_4">
     <g id="line2d_10">
      <path d="M 78.80125 344.148553 
L 1137.24625 344.148553 
" clip-path="url(#pdaaedeb237)" style="fill: none; stroke: #b0b0b0; stroke-opacity: 0.5; stroke-width: 0.8; stroke-linecap: square"/>
     </g>
     <g id="line2d_11">
      <g>
       <use xlink:href="#mee21d34150" x="78.80125" y="344.148553" style="stroke: #000000; stroke-width: 0.8"/>
      </g>
     </g>
     <g id="text_7">
      <!-- 600 -->
      <g transform="translate(42.60875 349.874803) scale(0.16 -0.16)">
       <defs>
        <path id="ArialUnicodeMS-36" d="M 838 2363 
Q 1225 2969 1941 2969 
Q 2503 2969 2897 2553 
Q 3291 2138 3291 1491 
Q 3291 838 2898 380 
Q 2506 -78 1856 -78 
Q 1197 -78 733 409 
Q 269 897 269 2144 
Q 269 3369 689 3986 
Q 1109 4603 1906 4603 
Q 2422 4603 2778 4315 
Q 3134 4028 3213 3463 
L 2650 3413 
Q 2497 4141 1875 4141 
Q 1444 4141 1134 3712 
Q 825 3284 825 2363 
L 838 2363 
z
M 1844 384 
Q 2231 384 2472 696 
Q 2713 1009 2713 1453 
Q 2713 1897 2472 2187 
Q 2231 2478 1825 2478 
Q 1453 2478 1184 2204 
Q 916 1931 916 1484 
Q 916 1028 1180 706 
Q 1444 384 1844 384 
z
" transform="scale(0.015625)"/>
       </defs>
       <use xlink:href="#ArialUnicodeMS-36"/>
       <use xlink:href="#ArialUnicodeMS-30" transform="translate(55.615234 0)"/>
       <use xlink:href="#ArialUnicodeMS-30" transform="translate(111.230469 0)"/>
      </g>
     </g>
    </g>
    <g id="ytick_5">
     <g id="line2d_12">
      <path d="M 78.80125 281.138071 
L 1137.24625 281.138071 
" clip-path="url(#pdaaedeb237)" style="fill: none; stroke: #b0b0b0; stroke-opacity: 0.5; stroke-width: 0.8; stroke-linecap: square"/>
     </g>
     <g id="line2d_13">
      <g>
       <use xlink:href="#mee21d34150" x="78.80125" y="281.138071" style="stroke: #000000; stroke-width: 0.8"/>
      </g>
     </g>
     <g id="text_8">
      <!-- 800 -->
      <g transform="translate(42.60875 286.864321) scale(0.16 -0.16)">
       <defs>
        <path id="ArialUnicodeMS-38" d="M 2425 2478 
Q 3284 2203 3284 1306 
Q 3284 716 2862 319 
Q 2441 -78 1778 -78 
Q 1109 -78 689 322 
Q 269 722 269 1325 
Q 269 1759 505 2084 
Q 741 2409 1141 2478 
L 1141 2491 
Q 453 2703 453 3419 
Q 453 3925 815 4264 
Q 1178 4603 1766 4603 
Q 2363 4603 2730 4253 
Q 3097 3903 3097 3406 
Q 3097 2731 2425 2491 
L 2425 2478 
z
M 1778 2700 
Q 2094 2700 2308 2901 
Q 2522 3103 2522 3406 
Q 2522 3716 2305 3928 
Q 2088 4141 1772 4141 
Q 1450 4141 1240 3931 
Q 1031 3722 1031 3438 
Q 1031 3097 1247 2898 
Q 1463 2700 1778 2700 
z
M 1778 384 
Q 2175 384 2440 640 
Q 2706 897 2706 1306 
Q 2706 1716 2432 1978 
Q 2159 2241 1766 2241 
Q 1356 2241 1100 1970 
Q 844 1700 844 1319 
Q 844 922 1108 653 
Q 1372 384 1778 384 
z
" transform="scale(0.015625)"/>
       </defs>
       <use xlink:href="#ArialUnicodeMS-38"/>
       <use xlink:href="#ArialUnicodeMS-30" transform="translate(55.615234 0)"/>
       <use xlink:href="#ArialUnicodeMS-30" transform="translate(111.230469 0)"/>
      </g>
     </g>
    </g>
    <g id="ytick_6">
     <g id="line2d_14">
      <path d="M 78.80125 218.127589 
L 1137.24625 218.127589 
" clip-path="url(#pdaaedeb237)" style="fill: none; stroke: #b0b0b0; stroke-opacity: 0.5; stroke-width: 0.8; stroke-linecap: square"/>
     </g>
     <g id="line2d_15">
      <g>
       <use xlink:href="#mee21d34150" x="78.80125" y="218.127589" style="stroke: #000000; stroke-width: 0.8"/>
      </g>
     </g>
     <g id="text_9">
      <!-- 1000 -->
      <g transform="translate(33.71125 223.853839) scale(0.16 -0.16)">
       <defs>
        <path id="ArialUnicodeMS-31" d="M 2400 0 
L 1838 0 
L 1838 3584 
Q 1416 3184 709 2906 
L 709 3450 
Q 1681 3916 2034 4603 
L 2400 4603 
L 2400 0 
z
" transform="scale(0.015625)"/>
       </defs>
       <use xlink:href="#ArialUnicodeMS-31"/>
       <use xlink:href="#ArialUnicodeMS-30" transform="translate(55.615234 0)"/>
       <use xlink:href="#ArialUnicodeMS-30" transform="translate(111.230469 0)"/>
       <use xlink:href="#ArialUnicodeMS-30" transform="translate(166.845703 0)"/>
      </g>
     </g>
    </g>
    <g id="ytick_7">
     <g id="line2d_16">
      <path d="M 78.80125 155.117107 
L 1137.24625 155.117107 
" clip-path="url(#pdaaedeb237)" style="fill: none; stroke: #b0b0b0; stroke-opacity: 0.5; stroke-width: 0.8; stroke-linecap: square"/>
     </g>
     <g id="line2d_17">
      <g>
       <use xlink:href="#mee21d34150" x="78.80125" y="155.117107" style="stroke: #000000; stroke-width: 0.8"/>
      </g>
     </g>
     <g id="text_10">
      <!-- 1200 -->
      <g transform="translate(33.71125 160.843357) scale(0.16 -0.16)">
       <use xlink:href="#ArialUnicodeMS-31"/>
       <use xlink:href="#ArialUnicodeMS-32" transform="translate(55.615234 0)"/>
       <use xlink:href="#ArialUnicodeMS-30" transform="translate(111.230469 0)"/>
       <use xlink:href="#ArialUnicodeMS-30" transform="translate(166.845703 0)"/>
      </g>
     </g>
    </g>
    <g id="ytick_8">
     <g id="line2d_18">
      <path d="M 78.80125 92.106625 
L 1137.24625 92.106625 
" clip-path="url(#pdaaedeb237)" style="fill: none; stroke: #b0b0b0; stroke-opacity: 0.5; stroke-width: 0.8; stroke-linecap: square"/>
     </g>
     <g id="line2d_19">
      <g>
       <use xlink:href="#mee21d34150" x="78.80125" y="92.106625" style="stroke: #000000; stroke-width: 0.8"/>
      </g>
     </g>
     <g id="text_11">
      <!-- 1400 -->
      <g transform="translate(33.71125 97.832875) scale(0.16 -0.16)">
       <use xlink:href="#ArialUnicodeMS-31"/>
       <use xlink:href="#ArialUnicodeMS-34" transform="translate(55.615234 0)"/>
       <use xlink:href="#ArialUnicodeMS-30" transform="translate(111.230469 0)"/>
       <use xlink:href="#ArialUnicodeMS-30" transform="translate(166.845703 0)"/>
      </g>
     </g>
    </g>
    <g id="ytick_9">
     <g id="line2d_20">
      <path d="M 78.80125 29.096143 
L 1137.24625 29.096143 
" clip-path="url(#pdaaedeb237)" style="fill: none; stroke: #b0b0b0; stroke-opacity: 0.5; stroke-width: 0.8; stroke-linecap: square"/>
     </g>
     <g id="line2d_21">
      <g>
       <use xlink:href="#mee21d34150" x="78.80125" y="29.096143" style="stroke: #000000; stroke-width: 0.8"/>
      </g>
     </g>
     <g id="text_12">
      <!-- 1600 -->
      <g transform="translate(33.71125 34.822393) scale(0.16 -0.16)">
       <use xlink:href="#ArialUnicodeMS-31"/>
       <use xlink:href="#ArialUnicodeMS-36" transform="translate(55.615234 0)"/>
       <use xlink:href="#ArialUnicodeMS-30" transform="translate(111.230469 0)"/>
       <use xlink:href="#ArialUnicodeMS-30" transform="translate(166.845703 0)"/>
      </g>
     </g>
    </g>
    <g id="text_13">
     <!-- Time (ms) -->
     <g transform="translate(24.67125 324.175) rotate(-90) scale(0.24 -0.24)">
      <defs>
       <path id="ArialUnicodeMS-54" d="M 3769 4038 
L 2253 4038 
L 2253 0 
L 1644 0 
L 1644 4038 
L 141 4038 
L 141 4581 
L 3769 4581 
L 3769 4038 
z
" transform="scale(0.015625)"/>
       <path id="ArialUnicodeMS-28" d="M 1900 -1344 
L 1497 -1344 
Q 978 -681 681 103 
Q 384 888 384 1656 
Q 384 2528 700 3275 
Q 1016 4022 1497 4659 
L 1900 4659 
Q 1344 3747 1155 3059 
Q 966 2372 966 1663 
Q 966 153 1900 -1344 
z
" transform="scale(0.015625)"/>
       <path id="ArialUnicodeMS-29" d="M 634 4659 
Q 1153 3997 1450 3212 
Q 1747 2428 1747 1656 
Q 1747 788 1431 41 
Q 1116 -706 634 -1344 
L 231 -1344 
Q 788 -431 977 255 
Q 1166 941 1166 1650 
Q 1166 3163 231 4659 
L 634 4659 
z
" transform="scale(0.015625)"/>
      </defs>
      <use xlink:href="#ArialUnicodeMS-54"/>
      <use xlink:href="#ArialUnicodeMS-69" transform="translate(61.083984 0)"/>
      <use xlink:href="#ArialUnicodeMS-6d" transform="translate(83.300781 0)"/>
      <use xlink:href="#ArialUnicodeMS-65" transform="translate(166.601562 0)"/>
      <use xlink:href="#ArialUnicodeMS-20" transform="translate(222.216797 0)"/>
      <use xlink:href="#ArialUnicodeMS-28" transform="translate(250 0)"/>
      <use xlink:href="#ArialUnicodeMS-6d" transform="translate(283.300781 0)"/>
      <use xlink:href="#ArialUnicodeMS-73" transform="translate(366.601562 0)"/>
      <use xlink:href="#ArialUnicodeMS-29" transform="translate(416.601562 0)"/>
     </g>
    </g>
   </g>
   <g id="patch_3">
    <path d="M 78.80125 533.18 
L 78.80125 7.2 
" style="fill: none; stroke: #000000; stroke-width: 0.8; stroke-linejoin: miter; stroke-linecap: square"/>
   </g>
   <g id="patch_4">
    <path d="M 1137.24625 533.18 
L 1137.24625 7.2 
" style="fill: none; stroke: #000000; stroke-width: 0.8; stroke-linejoin: miter; stroke-linecap: square"/>
   </g>
   <g id="patch_5">
    <path d="M 78.80125 533.18 
L 1137.24625 533.18 
" style="fill: none; stroke: #000000; stroke-width: 0.8; stroke-linejoin: miter; stroke-linecap: square"/>
   </g>
   <g id="patch_6">
    <path d="M 78.80125 7.2 
L 1137.24625 7.2 
" style="fill: none; stroke: #000000; stroke-width: 0.8; stroke-linejoin: miter; stroke-linecap: square"/>
   </g>
   <g id="patch_7">
    <path d="M 126.912386 533.18 
L 163.920953 533.18 
L 163.920953 32.246667 
L 126.912386 32.246667 
z
" clip-path="url(#pdaaedeb237)" style="fill: #0000ff"/>
   </g>
   <g id="patch_8">
    <path d="M 496.998051 533.18 
L 534.006617 533.18 
L 534.006617 93.774197 
L 496.998051 93.774197 
z
" clip-path="url(#pdaaedeb237)" style="fill: #0000ff"/>
   </g>
   <g id="patch_9">
    <path d="M 867.083715 533.18 
L 904.092281 533.18 
L 904.092281 525.639851 
L 867.083715 525.639851 
z
" clip-path="url(#pdaaedeb237)" style="fill: #0000ff"/>
   </g>
   <g id="patch_10">
    <path d="M 163.920953 533.18 
L 200.929519 533.18 
L 200.929519 439.640939 
L 163.920953 439.640939 
z
" clip-path="url(#pdaaedeb237)" style="fill: #008000"/>
   </g>
   <g id="patch_11">
    <path d="M 534.006617 533.18 
L 571.015184 533.18 
L 571.015184 408.307087 
L 534.006617 408.307087 
z
" clip-path="url(#pdaaedeb237)" style="fill: #008000"/>
   </g>
   <g id="patch_12">
    <path d="M 904.092281 533.18 
L 941.100848 533.18 
L 941.100848 525.8481 
L 904.092281 525.8481 
z
" clip-path="url(#pdaaedeb237)" style="fill: #008000"/>
   </g>
   <g id="patch_13">
    <path d="M 200.929519 533.18 
L 237.938086 533.18 
L 237.938086 462.639765 
L 200.929519 462.639765 
z
" clip-path="url(#pdaaedeb237)" style="fill: #ff0000"/>
   </g>
   <g id="patch_14">
    <path d="M 571.015184 533.18 
L 608.02375 533.18 
L 608.02375 448.521637 
L 571.015184 448.521637 
z
" clip-path="url(#pdaaedeb237)" style="fill: #ff0000"/>
   </g>
   <g id="patch_15">
    <path d="M 941.100848 533.18 
L 978.109414 533.18 
L 978.109414 525.691519 
L 941.100848 525.691519 
z
" clip-path="url(#pdaaedeb237)" style="fill: #ff0000"/>
   </g>
   <g id="patch_16">
    <path d="M 237.938086 533.18 
L 274.946652 533.18 
L 274.946652 481.416889 
L 237.938086 481.416889 
z
" clip-path="url(#pdaaedeb237)" style="fill: #00bfbf"/>
   </g>
   <g id="patch_17">
    <path d="M 608.02375 533.18 
L 645.032316 533.18 
L 645.032316 447.739676 
L 608.02375 447.739676 
z
" clip-path="url(#pdaaedeb237)" style="fill: #00bfbf"/>
   </g>
   <g id="patch_18">
    <path d="M 978.109414 533.18 
L 1015.117981 533.18 
L 1015.117981 525.945136 
L 978.109414 525.945136 
z
" clip-path="url(#pdaaedeb237)" style="fill: #00bfbf"/>
   </g>
   <g id="patch_19">
    <path d="M 274.946652 533.18 
L 311.955219 533.18 
L 311.955219 519.664252 
L 274.946652 519.664252 
z
" clip-path="url(#pdaaedeb237)" style="fill: #bf00bf"/>
   </g>
   <g id="patch_20">
    <path d="M 645.032316 533.18 
L 682.040883 533.18 
L 682.040883 502.265167 
L 645.032316 502.265167 
z
" clip-path="url(#pdaaedeb237)" style="fill: #bf00bf"/>
   </g>
   <g id="patch_21">
    <path d="M 1015.117981 533.18 
L 1052.126547 533.18 
L 1052.126547 525.557622 
L 1015.117981 525.557622 
z
" clip-path="url(#pdaaedeb237)" style="fill: #bf00bf"/>
   </g>
   <g id="patch_22">
    <path d="M 311.955219 533.18 
L 348.963785 533.18 
L 348.963785 529.682918 
L 311.955219 529.682918 
z
" clip-path="url(#pdaaedeb237)" style="fill: #bfbf00"/>
   </g>
   <g id="patch_23">
    <path d="M 682.040883 533.18 
L 719.049449 533.18 
L 719.049449 527.894681 
L 682.040883 527.894681 
z
" clip-path="url(#pdaaedeb237)" style="fill: #bfbf00"/>
   </g>
   <g id="patch_24">
    <path d="M 1052.126547 533.18 
L 1089.135114 533.18 
L 1089.135114 527.946349 
L 1052.126547 527.946349 
z
" clip-path="url(#pdaaedeb237)" style="fill: #bfbf00"/>
   </g>
   <g id="legend_1">
    <g id="patch_25">
     <path d="M 848.08375 194.134375 
L 1123.24625 194.134375 
Q 1127.24625 194.134375 1127.24625 190.134375 
L 1127.24625 21.2 
Q 1127.24625 17.2 1123.24625 17.2 
L 848.08375 17.2 
Q 844.08375 17.2 844.08375 21.2 
L 844.08375 190.134375 
Q 844.08375 194.134375 848.08375 194.134375 
z
" style="fill: #ffffff; opacity: 0.8; stroke: #cccccc; stroke-linejoin: miter"/>
    </g>
    <g id="patch_26">
     <path d="M 852.08375 39.759375 
L 892.08375 39.759375 
L 892.08375 25.759375 
L 852.08375 25.759375 
z
" style="fill: #0000ff"/>
    </g>
    <g id="text_14">
     <!-- Oh-My-ZSH -->
     <g transform="translate(908.08375 39.759375) scale(0.2 -0.2)">
      <defs>
       <path id="ArialUnicodeMS-4f" d="M 2497 4659 
Q 3459 4659 4071 4006 
Q 4684 3353 4684 2284 
Q 4684 1219 4068 570 
Q 3453 -78 2497 -78 
Q 1506 -78 903 594 
Q 300 1266 300 2234 
Q 300 3363 911 4011 
Q 1522 4659 2497 4659 
z
M 2491 441 
Q 3188 441 3620 928 
Q 4053 1416 4056 2284 
Q 4056 3178 3614 3659 
Q 3172 4141 2503 4141 
Q 1816 4141 1372 3669 
Q 928 3197 928 2222 
Q 928 1425 1362 933 
Q 1797 441 2491 441 
z
" transform="scale(0.015625)"/>
       <path id="ArialUnicodeMS-4d" d="M 4844 0 
L 4269 0 
L 4269 3834 
L 4256 3834 
L 2938 0 
L 2394 0 
L 1081 3897 
L 1063 3897 
L 1063 0 
L 488 0 
L 488 4581 
L 1394 4581 
L 2478 1338 
Q 2659 797 2688 659 
L 2700 659 
Q 2784 925 2944 1394 
L 4038 4581 
L 4844 4581 
L 4844 0 
z
" transform="scale(0.015625)"/>
       <path id="ArialUnicodeMS-79" d="M 3150 3316 
L 1881 -56 
Q 1878 -63 1875 -78 
Q 1694 -641 1451 -992 
Q 1209 -1344 763 -1344 
Q 613 -1344 397 -1281 
L 341 -750 
Q 503 -800 659 -800 
Q 972 -800 1092 -628 
Q 1213 -456 1363 -6 
L 103 3316 
L 709 3316 
L 1491 1144 
Q 1559 944 1638 628 
L 1650 628 
Q 1728 991 1850 1319 
L 2578 3316 
L 3150 3316 
z
" transform="scale(0.015625)"/>
       <path id="ArialUnicodeMS-5a" d="M 3738 0 
L 116 0 
L 116 569 
L 2463 3494 
Q 2463 3503 2628 3698 
Q 2794 3894 2938 4038 
L 378 4038 
L 378 4581 
L 3659 4581 
L 3659 4038 
L 1088 872 
L 813 544 
L 3738 544 
L 3738 0 
z
" transform="scale(0.015625)"/>
       <path id="ArialUnicodeMS-53" d="M 3213 3238 
Q 3175 3675 2897 3895 
Q 2619 4116 2100 4116 
Q 1631 4116 1337 3941 
Q 1044 3766 1044 3431 
Q 1044 3134 1270 2989 
Q 1497 2844 2138 2700 
Q 2706 2575 3065 2444 
Q 3425 2313 3681 2036 
Q 3938 1759 3938 1294 
Q 3938 703 3467 312 
Q 2997 -78 2241 -78 
Q 1275 -78 795 353 
Q 316 784 288 1472 
L 863 1522 
Q 903 972 1287 720 
Q 1672 469 2216 469 
Q 2725 469 3039 678 
Q 3353 888 3353 1247 
Q 3353 1622 3025 1794 
Q 2697 1966 1923 2133 
Q 1150 2300 809 2603 
Q 469 2906 469 3391 
Q 469 3941 900 4300 
Q 1331 4659 2075 4659 
Q 2838 4659 3302 4301 
Q 3766 3944 3794 3284 
L 3213 3238 
z
" transform="scale(0.015625)"/>
       <path id="ArialUnicodeMS-48" d="M 4109 0 
L 3500 0 
L 3500 2156 
L 1119 2156 
L 1119 0 
L 513 0 
L 513 4581 
L 1119 4581 
L 1119 2700 
L 3500 2700 
L 3500 4581 
L 4109 4581 
L 4109 0 
z
" transform="scale(0.015625)"/>
      </defs>
      <use xlink:href="#ArialUnicodeMS-4f"/>
      <use xlink:href="#ArialUnicodeMS-68" transform="translate(77.783203 0)"/>
      <use xlink:href="#ArialUnicodeMS-2d" transform="translate(133.398438 0)"/>
      <use xlink:href="#ArialUnicodeMS-4d" transform="translate(166.699219 0)"/>
      <use xlink:href="#ArialUnicodeMS-79" transform="translate(250 0)"/>
      <use xlink:href="#ArialUnicodeMS-2d" transform="translate(300 0)"/>
      <use xlink:href="#ArialUnicodeMS-5a" transform="translate(333.300781 0)"/>
      <use xlink:href="#ArialUnicodeMS-53" transform="translate(394.384766 0)"/>
      <use xlink:href="#ArialUnicodeMS-48" transform="translate(461.083984 0)"/>
     </g>
    </g>
    <g id="patch_27">
     <path d="M 852.08375 68.275 
L 892.08375 68.275 
L 892.08375 54.275 
L 852.08375 54.275 
z
" style="fill: #008000"/>
    </g>
    <g id="text_15">
     <!-- Zinit Light -->
     <g transform="translate(908.08375 68.275) scale(0.2 -0.2)">
      <use xlink:href="#ArialUnicodeMS-5a"/>
      <use xlink:href="#ArialUnicodeMS-69" transform="translate(61.083984 0)"/>
      <use xlink:href="#ArialUnicodeMS-6e" transform="translate(83.300781 0)"/>
      <use xlink:href="#ArialUnicodeMS-69" transform="translate(138.916016 0)"/>
      <use xlink:href="#ArialUnicodeMS-74" transform="translate(161.132812 0)"/>
      <use xlink:href="#ArialUnicodeMS-20" transform="translate(188.916016 0)"/>
      <use xlink:href="#ArialUnicodeMS-4c" transform="translate(216.699219 0)"/>
      <use xlink:href="#ArialUnicodeMS-69" transform="translate(272.314453 0)"/>
      <use xlink:href="#ArialUnicodeMS-67" transform="translate(294.53125 0)"/>
      <use xlink:href="#ArialUnicodeMS-68" transform="translate(350.146484 0)"/>
      <use xlink:href="#ArialUnicodeMS-74" transform="translate(405.761719 0)"/>
     </g>
    </g>
    <g id="patch_28">
     <path d="M 852.08375 96.790625 
L 892.08375 96.790625 
L 892.08375 82.790625 
L 852.08375 82.790625 
z
" style="fill: #ff0000"/>
    </g>
    <g id="text_16">
     <!-- Zinit Turbo -->
     <g transform="translate(908.08375 96.790625) scale(0.2 -0.2)">
      <defs>
       <path id="ArialUnicodeMS-75" d="M 3116 0 
L 2613 0 
L 2613 488 
L 2597 488 
Q 2216 -78 1556 -78 
Q 1209 -78 914 83 
Q 619 244 520 526 
Q 422 809 422 1259 
L 422 3316 
L 984 3316 
L 984 1478 
Q 984 1038 1026 847 
Q 1069 656 1247 532 
Q 1425 409 1672 409 
Q 1991 409 2272 629 
Q 2553 850 2553 1544 
L 2553 3316 
L 3116 3316 
L 3116 0 
z
" transform="scale(0.015625)"/>
       <path id="ArialUnicodeMS-62" d="M 1006 2944 
Q 1319 3391 1900 3391 
Q 2541 3391 2925 2925 
Q 3309 2459 3309 1709 
Q 3309 844 2879 383 
Q 2450 -78 1875 -78 
Q 1291 -78 966 416 
L 953 416 
L 953 0 
L 428 0 
L 428 4581 
L 991 4581 
L 991 2944 
L 1006 2944 
z
M 1831 384 
Q 2222 384 2476 720 
Q 2731 1056 2731 1663 
Q 2731 2247 2497 2589 
Q 2263 2931 1850 2931 
Q 1444 2931 1195 2578 
Q 947 2225 947 1684 
Q 947 1156 1050 932 
Q 1153 709 1361 546 
Q 1569 384 1831 384 
z
" transform="scale(0.015625)"/>
      </defs>
      <use xlink:href="#ArialUnicodeMS-5a"/>
      <use xlink:href="#ArialUnicodeMS-69" transform="translate(61.083984 0)"/>
      <use xlink:href="#ArialUnicodeMS-6e" transform="translate(83.300781 0)"/>
      <use xlink:href="#ArialUnicodeMS-69" transform="translate(138.916016 0)"/>
      <use xlink:href="#ArialUnicodeMS-74" transform="translate(161.132812 0)"/>
      <use xlink:href="#ArialUnicodeMS-20" transform="translate(188.916016 0)"/>
      <use xlink:href="#ArialUnicodeMS-54" transform="translate(216.699219 0)"/>
      <use xlink:href="#ArialUnicodeMS-75" transform="translate(277.783203 0)"/>
      <use xlink:href="#ArialUnicodeMS-72" transform="translate(333.398438 0)"/>
      <use xlink:href="#ArialUnicodeMS-62" transform="translate(366.699219 0)"/>
      <use xlink:href="#ArialUnicodeMS-6f" transform="translate(422.314453 0)"/>
     </g>
    </g>
    <g id="patch_29">
     <path d="M 852.08375 125.090625 
L 892.08375 125.090625 
L 892.08375 111.090625 
L 852.08375 111.090625 
z
" style="fill: #00bfbf"/>
    </g>
    <g id="text_17">
     <!-- Zim -->
     <g transform="translate(908.08375 125.090625) scale(0.2 -0.2)">
      <use xlink:href="#ArialUnicodeMS-5a"/>
      <use xlink:href="#ArialUnicodeMS-69" transform="translate(61.083984 0)"/>
      <use xlink:href="#ArialUnicodeMS-6d" transform="translate(83.300781 0)"/>
     </g>
    </g>
    <g id="patch_30">
     <path d="M 852.08375 153.390625 
L 892.08375 153.390625 
L 892.08375 139.390625 
L 852.08375 139.390625 
z
" style="fill: #bf00bf"/>
    </g>
    <g id="text_18">
     <!-- 我的設定 -->
     <g transform="translate(908.08375 153.390625) scale(0.2 -0.2)">
      <defs>
       <path id="ArialUnicodeMS-6211" d="M 5972 941 
Q 5866 -353 5434 -353 
Q 5169 -353 4823 -25 
Q 4478 303 4191 794 
Q 3700 384 2950 -13 
L 2522 347 
Q 3463 797 3969 1275 
Q 3734 1928 3609 2881 
L 2375 2881 
L 2375 1959 
L 3366 2209 
L 3366 1716 
L 2375 1453 
L 2375 128 
Q 2375 -122 2209 -253 
Q 2044 -384 1658 -376 
Q 1272 -369 1113 -378 
L 934 122 
L 1722 103 
Q 1869 103 1869 269 
L 1869 1313 
L 750 1013 
L 391 1478 
Q 1138 1622 1869 1813 
L 1869 2881 
L 556 2881 
L 556 3366 
L 1869 3366 
L 1869 4288 
Q 1425 4144 819 4116 
L 519 4594 
Q 1794 4584 3022 5300 
L 3341 4934 
Q 2622 4509 2375 4409 
L 2375 3366 
L 3566 3366 
Q 3522 4016 3522 4753 
Q 3522 5025 3525 5325 
L 4019 5325 
Q 4019 4134 4078 3366 
L 5778 3366 
L 5778 2881 
L 4122 2881 
Q 4191 2281 4378 1656 
Q 4809 2138 5094 2706 
L 5528 2522 
Q 5138 1759 4569 1172 
Q 4619 1044 4884 651 
Q 5150 259 5253 259 
Q 5391 259 5472 1131 
L 5972 941 
z
M 5691 3975 
L 5281 3622 
Q 4991 4297 4178 4684 
L 4588 5056 
Q 5388 4600 5691 3975 
z
" transform="scale(0.015625)"/>
       <path id="ArialUnicodeMS-7684" d="M 5644 4281 
Q 5619 1694 5395 673 
Q 5172 -347 4606 -347 
Q 4350 -347 3609 -134 
L 3525 403 
Q 4247 134 4531 134 
Q 4806 134 4976 1142 
Q 5147 2150 5159 3841 
L 3794 3841 
Q 3550 3166 3053 2497 
L 2719 2713 
L 2719 -147 
L 2216 -147 
L 2216 269 
L 1153 269 
L 1153 -250 
L 647 -250 
L 647 4184 
L 1234 4184 
Q 1494 4644 1625 5313 
L 2088 5125 
Q 1903 4444 1741 4184 
L 2719 4184 
L 2719 2881 
Q 3431 3888 3681 5363 
L 4191 5247 
Q 4106 4869 3916 4281 
L 5644 4281 
z
M 2216 2484 
L 2216 3719 
L 1153 3719 
L 1153 2484 
L 2216 2484 
z
M 2216 738 
L 2216 2016 
L 1153 2016 
L 1153 738 
L 2216 738 
z
M 4775 1369 
L 4313 1166 
Q 4034 1925 3444 2669 
L 3841 2931 
Q 4484 2191 4775 1369 
z
" transform="scale(0.015625)"/>
       <path id="ArialUnicodeMS-8a2d" d="M 2553 4763 
L 628 4763 
L 628 5228 
L 2553 5228 
L 2553 4763 
z
M 6106 3803 
Q 5991 3009 5588 3009 
L 5197 3009 
Q 4703 3009 4703 3481 
L 4703 4641 
L 3822 4641 
Q 3816 4084 3789 3818 
Q 3763 3553 3598 3279 
Q 3434 3006 3138 2731 
L 2747 3084 
Q 3328 3572 3328 4091 
L 3328 5106 
L 5184 5106 
L 5184 3609 
Q 5184 3475 5313 3475 
L 5478 3475 
Q 5622 3475 5656 3975 
L 6106 3803 
z
M 2759 3928 
L 384 3928 
L 384 4397 
L 2759 4397 
L 2759 3928 
z
M 2553 3066 
L 628 3066 
L 628 3541 
L 2553 3541 
L 2553 3066 
z
M 2553 2194 
L 628 2194 
L 628 2663 
L 2553 2663 
L 2553 2194 
z
M 6241 50 
L 5894 -384 
Q 4906 -9 4341 459 
Q 3500 -175 2838 -400 
L 2556 -59 
Q 3238 188 3981 788 
Q 3616 1150 3206 2119 
L 2938 2119 
L 2938 2584 
L 5656 2584 
Q 5475 1519 4691 781 
Q 5256 334 6241 50 
z
M 5025 2119 
L 3725 2119 
Q 4028 1425 4353 1100 
Q 4875 1663 5025 2119 
z
M 2491 -391 
L 2003 -391 
L 2003 50 
L 1106 50 
L 1106 -391 
L 628 -391 
L 628 1741 
L 2491 1741 
L 2491 -391 
z
M 2003 513 
L 2003 1281 
L 1106 1281 
L 1106 513 
L 2003 513 
z
" transform="scale(0.015625)"/>
       <path id="ArialUnicodeMS-5b9a" d="M 5747 3353 
L 5247 3353 
L 5247 4153 
L 1141 4153 
L 1141 3391 
L 653 3391 
L 653 4622 
L 2956 4622 
L 2956 5288 
L 3444 5288 
L 3444 4622 
L 5747 4622 
L 5747 3353 
z
M 6100 416 
L 5863 -97 
Q 5559 -109 5147 -109 
Q 3516 -109 2859 30 
Q 2203 169 1638 781 
Q 1378 175 659 -428 
L 263 -25 
Q 1481 681 1434 2528 
L 1913 2419 
Q 1903 1834 1806 1288 
Q 2259 666 3009 500 
L 3009 2925 
L 1325 2925 
L 1325 3391 
L 5106 3391 
L 5106 2925 
L 3494 2925 
L 3494 1978 
L 5422 1978 
L 5422 1509 
L 3494 1509 
L 3494 428 
L 4263 403 
L 6100 416 
z
" transform="scale(0.015625)"/>
      </defs>
      <use xlink:href="#ArialUnicodeMS-6211"/>
      <use xlink:href="#ArialUnicodeMS-7684" transform="translate(100 0)"/>
      <use xlink:href="#ArialUnicodeMS-8a2d" transform="translate(200 0)"/>
      <use xlink:href="#ArialUnicodeMS-5b9a" transform="translate(300 0)"/>
     </g>
    </g>
    <g id="patch_31">
     <path d="M 852.08375 181.934375 
L 892.08375 181.934375 
L 892.08375 167.934375 
L 852.08375 167.934375 
z
" style="fill: #bfbf00"/>
    </g>
    <g id="text_19">
     <!-- Baseline (Empty .zshrc) -->
     <g transform="translate(908.08375 181.934375) scale(0.2 -0.2)">
      <defs>
       <path id="ArialUnicodeMS-42" d="M 3078 2438 
Q 3509 2306 3723 2011 
Q 3938 1716 3938 1331 
Q 3938 947 3744 625 
Q 3550 303 3194 151 
Q 2838 0 2228 0 
L 475 0 
L 475 4581 
L 2194 4581 
Q 3028 4581 3370 4218 
Q 3713 3856 3713 3413 
Q 3713 3113 3555 2858 
Q 3397 2603 3078 2438 
z
M 1081 2663 
L 2075 2663 
Q 2381 2663 2589 2697 
Q 2797 2731 2956 2878 
Q 3116 3025 3116 3334 
Q 3116 3659 2955 3814 
Q 2794 3969 2570 4003 
Q 2347 4038 1997 4038 
L 1081 4038 
L 1081 2663 
z
M 1081 544 
L 2222 544 
Q 2834 544 3071 753 
Q 3309 963 3309 1331 
Q 3309 1703 3056 1911 
Q 2803 2119 2144 2119 
L 1081 2119 
L 1081 544 
z
" transform="scale(0.015625)"/>
       <path id="ArialUnicodeMS-6c" d="M 991 0 
L 428 0 
L 428 4581 
L 991 4581 
L 991 0 
z
" transform="scale(0.015625)"/>
       <path id="ArialUnicodeMS-45" d="M 3928 0 
L 506 0 
L 506 4581 
L 3822 4581 
L 3822 4038 
L 1113 4038 
L 1113 2638 
L 3647 2638 
L 3647 2094 
L 1113 2094 
L 1113 544 
L 3928 544 
L 3928 0 
z
" transform="scale(0.015625)"/>
       <path id="ArialUnicodeMS-2e" d="M 1209 0 
L 569 0 
L 569 641 
L 1209 641 
L 1209 0 
z
" transform="scale(0.015625)"/>
      </defs>
      <use xlink:href="#ArialUnicodeMS-42"/>
      <use xlink:href="#ArialUnicodeMS-61" transform="translate(66.699219 0)"/>
      <use xlink:href="#ArialUnicodeMS-73" transform="translate(122.314453 0)"/>
      <use xlink:href="#ArialUnicodeMS-65" transform="translate(172.314453 0)"/>
      <use xlink:href="#ArialUnicodeMS-6c" transform="translate(227.929688 0)"/>
      <use xlink:href="#ArialUnicodeMS-69" transform="translate(250.146484 0)"/>
      <use xlink:href="#ArialUnicodeMS-6e" transform="translate(272.363281 0)"/>
      <use xlink:href="#ArialUnicodeMS-65" transform="translate(327.978516 0)"/>
      <use xlink:href="#ArialUnicodeMS-20" transform="translate(383.59375 0)"/>
      <use xlink:href="#ArialUnicodeMS-28" transform="translate(411.376953 0)"/>
      <use xlink:href="#ArialUnicodeMS-45" transform="translate(444.677734 0)"/>
      <use xlink:href="#ArialUnicodeMS-6d" transform="translate(511.376953 0)"/>
      <use xlink:href="#ArialUnicodeMS-70" transform="translate(594.677734 0)"/>
      <use xlink:href="#ArialUnicodeMS-74" transform="translate(650.292969 0)"/>
      <use xlink:href="#ArialUnicodeMS-79" transform="translate(678.076172 0)"/>
      <use xlink:href="#ArialUnicodeMS-20" transform="translate(728.076172 0)"/>
      <use xlink:href="#ArialUnicodeMS-2e" transform="translate(755.859375 0)"/>
      <use xlink:href="#ArialUnicodeMS-7a" transform="translate(783.642578 0)"/>
      <use xlink:href="#ArialUnicodeMS-73" transform="translate(833.642578 0)"/>
      <use xlink:href="#ArialUnicodeMS-68" transform="translate(883.642578 0)"/>
      <use xlink:href="#ArialUnicodeMS-72" transform="translate(939.257812 0)"/>
      <use xlink:href="#ArialUnicodeMS-63" transform="translate(972.558594 0)"/>
      <use xlink:href="#ArialUnicodeMS-29" transform="translate(1022.558594 0)"/>
     </g>
    </g>
   </g>
  </g>
 </g>
 <defs>
  <clipPath id="pdaaedeb237">
   <rect x="78.80125" y="7.2" width="1058.445" height="525.98"/>
  </clipPath>
 </defs>
</svg>
